<svg width="70" height="19" viewBox="0 0 70 19" fill="none" xmlns="http://www.w3.org/2000/svg">
<path d="M0.367641 0.852295H10.9176C13.301 0.852295 15.101 1.18563 16.3176 1.8523C17.5343 2.51896 18.1426 3.69396 18.1426 5.37729C18.1426 6.39396 17.901 7.25229 17.4176 7.95229C16.951 8.65229 16.276 9.07729 15.3926 9.22729V9.35229C15.9926 9.46896 16.5343 9.67729 17.0176 9.97729C17.501 10.2773 17.8843 10.7106 18.1676 11.2773C18.451 11.844 18.5926 12.594 18.5926 13.5273C18.5926 15.144 18.0093 16.4106 16.8426 17.3273C15.676 18.244 14.076 18.7023 12.0426 18.7023H0.367641V0.852295ZM4.14264 7.92729H11.3426C12.4426 7.92729 13.201 7.75229 13.6176 7.40229C14.051 7.05229 14.2676 6.54396 14.2676 5.87729C14.2676 5.19396 14.0176 4.7023 13.5176 4.4023C13.0176 4.1023 12.226 3.9523 11.1426 3.9523H4.14264V7.92729ZM4.14264 10.9273V15.5773L11.6176 15.5773C12.751 15.5773 13.5426 15.3606 13.9926 14.9273C14.4426 14.4773 14.6676 13.8856 14.6676 13.1523C14.6676 12.4856 14.4343 11.9523 13.9676 11.5523C13.5176 11.1356 12.6926 10.9273 11.4926 10.9273H4.14264Z" fill="black"/>
<path d="M31.7131 18.7023L27.5381 4.6706V18.7023H24.1631V0.852295H29.3131L33.5381 14.5023H33.6131L38.0881 0.852295H43.2381V18.7023H39.7131V4.70398L35.1881 18.7023H31.7131Z" fill="black"/>
<path d="M69.8678 0.852295L66.3178 18.7023H62.0178L58.7678 5.15229L55.5428 18.7023H51.2428L47.6928 0.852295H51.0175L53.5678 15.2773L56.9928 0.852295H60.5678L63.9928 15.2773L66.5475 0.852295H69.8678Z" fill="black"/>
</svg>
