<svg width="109" height="31" viewBox="0 0 109 31" fill="none" xmlns="http://www.w3.org/2000/svg">
    <g class="lines">
        <path d="M3.33089 30.7542H1.53089C1.15755 30.7542 0.970886 30.5675 0.970886 30.1942V1.59419C0.970886 1.22086 1.15755 1.03419 1.53089 1.03419H13.9709C14.3442 1.03419 14.5309 1.22086 14.5309 1.59419V3.03419C14.5309 3.40752 14.3442 3.59419 13.9709 3.59419H4.29089C4.02422 3.59419 3.89089 3.71419 3.89089 3.95419V10.6742C3.89089 10.9142 4.02422 11.0342 4.29089 11.0342H12.8509C13.2242 11.0342 13.4109 11.2209 13.4109 11.5942V13.0342C13.4109 13.4075 13.2242 13.5942 12.8509 13.5942H4.29089C4.02422 13.5942 3.89089 13.7275 3.89089 13.9942V30.1942C3.89089 30.5675 3.70422 30.7542 3.33089 30.7542Z" fill="#DD5A2A"/>
        <path d="M19.4521 4.99419V1.23419C19.4521 0.86086 19.6255 0.674193 19.9721 0.674193H21.8121C22.1855 0.674193 22.3721 0.86086 22.3721 1.23419V4.99419C22.3721 5.36753 22.1855 5.55419 21.8121 5.55419H19.9721C19.6255 5.55419 19.4521 5.36753 19.4521 4.99419ZM19.4521 30.1942V10.9142C19.4521 10.5409 19.6255 10.3542 19.9721 10.3542H21.8121C22.1855 10.3542 22.3721 10.5409 22.3721 10.9142V30.1942C22.3721 30.5675 22.1855 30.7542 21.8121 30.7542H20.0121C19.6388 30.7542 19.4521 30.5675 19.4521 30.1942Z" fill="#DD5A2A"/>
        <path d="M30.8403 30.7542H29.0403C28.6669 30.7542 28.4803 30.5675 28.4803 30.1942V10.9142C28.4803 10.5409 28.6669 10.3542 29.0403 10.3542H30.8403C31.2136 10.3542 31.4003 10.5409 31.4003 10.9142V12.5142H31.5603C31.8269 11.9275 32.3336 11.4209 33.0803 10.9942C33.8269 10.5675 34.7069 10.3542 35.7203 10.3542H37.2803C37.6269 10.3542 37.8003 10.5409 37.8003 10.9142V12.3942C37.8003 12.5809 37.7603 12.7275 37.6803 12.8342C37.6003 12.9142 37.4669 12.9409 37.2803 12.9142H35.1203C33.9203 12.9142 33.0003 13.2742 32.3603 13.9942C31.7203 14.7142 31.4003 15.7009 31.4003 16.9542V30.1942C31.4003 30.5675 31.2136 30.7542 30.8403 30.7542Z" fill="#DD5A2A"/>
        <path d="M55.81 30.7542H47.3299C45.4899 30.7542 44.0366 30.2342 42.9699 29.1942C41.9299 28.1542 41.41 26.7009 41.41 24.8342V16.2742C41.41 14.4075 41.9299 12.9542 42.9699 11.9142C44.0366 10.8742 45.4899 10.3542 47.3299 10.3542H50.6899C52.5299 10.3542 53.9699 10.8742 55.0099 11.9142C56.0499 12.9542 56.57 14.4075 56.57 16.2742V21.3542C56.57 21.7542 56.3833 21.9542 56.0099 21.9542H44.6899C44.4233 21.9542 44.29 22.0742 44.29 22.3142V24.7542C44.29 27.0742 45.4099 28.2342 47.6499 28.2342H55.81C56.1833 28.2342 56.3699 28.4209 56.3699 28.7942V30.2342C56.3699 30.5809 56.1833 30.7542 55.81 30.7542ZM44.6899 19.8342H53.3299C53.5966 19.8342 53.7299 19.7009 53.7299 19.4342V16.3542C53.7299 14.0609 52.6099 12.9142 50.3699 12.9142H47.6499C45.4099 12.9142 44.29 14.0609 44.29 16.3542V19.4342C44.29 19.7009 44.4233 19.8342 44.6899 19.8342Z" fill="#DD5A2A"/>
        <path d="M67.0174 10.3542H70.5374C70.9374 10.3542 71.1375 10.5275 71.1375 10.8742V12.3542C71.1375 12.7275 70.9374 12.9142 70.5374 12.9142H67.0174C66.7774 12.9142 66.6574 13.0342 66.6574 13.2742V30.1942C66.6574 30.5675 66.4574 30.7542 66.0574 30.7542H64.2974C63.9241 30.7542 63.7374 30.5675 63.7374 30.1942V13.2742C63.7374 13.0342 63.6041 12.9142 63.3374 12.9142H60.9774C60.6041 12.9142 60.4174 12.7275 60.4174 12.3542V10.8742C60.4174 10.5275 60.6041 10.3542 60.9774 10.3542H63.3374C63.6041 10.3542 63.7374 10.2342 63.7374 9.99419V6.51419C63.7374 4.62086 64.2041 3.16753 65.1374 2.15419C66.0708 1.14086 67.4308 0.634193 69.2174 0.634193H70.5774C70.9508 0.634193 71.1375 0.807526 71.1375 1.15419V2.63419C71.1375 3.00752 70.9508 3.19419 70.5774 3.19419H69.5774C68.4841 3.19419 67.7241 3.47419 67.2974 4.03419C66.8708 4.56753 66.6574 5.43419 66.6574 6.63419V9.99419C66.6574 10.2342 66.7774 10.3542 67.0174 10.3542Z" fill="#DD5A2A"/>
        <path d="M83.9918 30.7542H80.5518C78.7118 30.7542 77.2585 30.2342 76.1918 29.1942C75.1518 28.1542 74.6318 26.7009 74.6318 24.8342V16.2742C74.6318 14.4075 75.1518 12.9542 76.1918 11.9142C77.2585 10.8742 78.7118 10.3542 80.5518 10.3542H83.9918C85.8318 10.3542 87.2718 10.8742 88.3118 11.9142C89.3785 12.9542 89.9118 14.4075 89.9118 16.2742V24.8342C89.9118 26.7009 89.3785 28.1542 88.3118 29.1942C87.2718 30.2342 85.8318 30.7542 83.9918 30.7542ZM80.8718 28.1942H83.6718C85.9118 28.1942 87.0318 27.0475 87.0318 24.7542V16.3542C87.0318 14.0609 85.9118 12.9142 83.6718 12.9142H80.8718C78.6318 12.9142 77.5118 14.0609 77.5118 16.3542V24.7542C77.5118 27.0475 78.6318 28.1942 80.8718 28.1942Z" fill="#DD5A2A"/>
        <path d="M96.2318 30.7542H93.9918C93.5652 30.7542 93.4585 30.5675 93.6718 30.1942L99.2718 20.3542L93.8718 10.9142C93.6585 10.5409 93.7518 10.3542 94.1518 10.3542H96.3918C96.7385 10.3542 97.0185 10.5409 97.2318 10.9142L101.152 18.4742H101.312L105.032 10.9142C105.218 10.5409 105.498 10.3542 105.872 10.3542H108.072C108.525 10.3542 108.618 10.5409 108.352 10.9142L103.112 20.3142L108.792 30.1942C109.032 30.5675 108.938 30.7542 108.512 30.7542H106.192C105.898 30.7542 105.645 30.5675 105.432 30.1942L101.312 22.3142H101.152L97.0318 30.1942C96.8718 30.5675 96.6052 30.7542 96.2318 30.7542Z" fill="#DD5A2A"/>
    </g>
</svg>
