<svg width="112" height="112" viewBox="0 0 112 112" fill="none" xmlns="http://www.w3.org/2000/svg">
<path d="M26.5009 78.2364L0.52578 85.2084L56.0409 111.498L111.713 85.2873L85.5805 78.1693L55.9903 102.218L26.5009 78.2364Z" fill="#FFFDFE"/>
<path d="M16.303 55.813L8.66189 0.0830498L41.1338 34.1506H70.8031L103.248 0.256888L95.8549 56.0832L111.697 85.2858L85.5672 78.2104L66.3047 93.8516L55.9531 89.4961L45.7031 93.8555L26.4961 78.2422L0.535088 85.2121L16.303 55.813Z" fill="#DD5A2A"/>
<path d="M33.5908 35.7216L17.7896 19.8275L21.2287 50.0356L33.5908 35.7216Z" fill="black"/>
<path d="M78.3903 35.8787L90.812 50.123L94.2609 19.7556L78.3903 35.8787Z" fill="black"/>
<path class="right-eye" d="M36.5422 73.6437L26.8884 62.1994L47.5026 69.2885L36.5422 73.6437Z" fill="black"/>
<path class="left-eye" d="M75.2574 73.7121L64.663 69.186L85.1478 62.2795L75.2574 73.7121Z" fill="black"/>
<path d="M55.9525 89.4931L45.7053 93.8471L55.9525 102.197L66.306 93.8471L55.9525 89.4931Z" fill="#EBB4B4"/>
</svg>
