<svg width="86" height="71" viewBox="0 0 86 71" fill="none" xmlns="http://www.w3.org/2000/svg">
<g clip-path="url(#clip0)">
<path d="M0 55C0 63.8366 7.16344 71 16 71V39C7.16344 39 0 46.1634 0 55Z" fill="#4CC8C0"/>
<path d="M86 55C86 46.1634 78.8366 39 70 39V71C78.8366 71 86 63.8365 86 55Z" fill="#4CC8C0"/>
<line x1="14" y1="46" x2="15" y2="29" stroke="#4CC8C0" stroke-width="4"/>
<line x1="72" y1="46" x2="73" y2="29" stroke="#4CC8C0" stroke-width="4"/>
<path d="M72 30C72 14.536 59.0163 2 43 2C26.9837 2 14 14.536 14 30" stroke="#4CC8C0" stroke-width="4"/>
<line x1="24" y1="47.5" x2="36" y2="47.5" stroke="white" stroke-width="3" stroke-linejoin="bevel"/>
<line x1="50" y1="47.5" x2="62" y2="47.5" stroke="white" stroke-width="3" stroke-linejoin="bevel"/>
<path d="M49 60C49 63.3137 46.3137 64 43 64C39.6863 64 37 63.3137 37 60" stroke="white" stroke-width="3"/>
</g>
<defs>
<clipPath id="clip0">
<rect width="86" height="71" fill="white"/>
</clipPath>
</defs>
</svg>
